<mxfile host="app.diagrams.net" agent="Mozilla/5.0 (Windows NT 10.0; Win64; x64) AppleWebKit/537.36 (KHTML, like Gecko) Chrome/138.0.0.0 Safari/537.36 Edg/138.0.0.0" version="28.0.7">
  <diagram name="Seite-1" id="Zp2iScgObEftiu548pdZ">
    <mxGraphModel dx="5059" dy="2558" grid="1" gridSize="10" guides="1" tooltips="1" connect="1" arrows="1" fold="1" page="1" pageScale="1" pageWidth="827" pageHeight="1169" math="0" shadow="0">
      <root>
        <mxCell id="0" />
        <mxCell id="1" parent="0" />
        <mxCell id="U0MHQRph9I1R_LKBhdZ5-59" value="Start" style="ellipse;whiteSpace=wrap;html=1;" vertex="1" parent="1">
          <mxGeometry x="-1580" y="-1140" width="120" height="60" as="geometry" />
        </mxCell>
        <mxCell id="U0MHQRph9I1R_LKBhdZ5-60" value="Ort &lt;- &quot;&quot;" style="whiteSpace=wrap;html=1;" vertex="1" parent="1">
          <mxGeometry x="-1580" y="-1040" width="120" height="60" as="geometry" />
        </mxCell>
        <mxCell id="U0MHQRph9I1R_LKBhdZ5-61" value="" style="endArrow=classic;html=1;rounded=0;" edge="1" parent="1">
          <mxGeometry width="50" height="50" relative="1" as="geometry">
            <mxPoint x="-1520" y="-1080" as="sourcePoint" />
            <mxPoint x="-1520" y="-1040" as="targetPoint" />
          </mxGeometry>
        </mxCell>
        <mxCell id="U0MHQRph9I1R_LKBhdZ5-62" value="uhrzeit &lt; -0" style="whiteSpace=wrap;html=1;" vertex="1" parent="1">
          <mxGeometry x="-1580" y="-940" width="120" height="60" as="geometry" />
        </mxCell>
        <mxCell id="U0MHQRph9I1R_LKBhdZ5-63" value="" style="endArrow=classic;html=1;rounded=0;" edge="1" parent="1">
          <mxGeometry width="50" height="50" relative="1" as="geometry">
            <mxPoint x="-1520" y="-980" as="sourcePoint" />
            <mxPoint x="-1520" y="-940" as="targetPoint" />
          </mxGeometry>
        </mxCell>
        <mxCell id="U0MHQRph9I1R_LKBhdZ5-64" value="Eingabe von Ort" style="shape=parallelogram;perimeter=parallelogramPerimeter;whiteSpace=wrap;html=1;fixedSize=1;" vertex="1" parent="1">
          <mxGeometry x="-1580" y="-840" width="120" height="60" as="geometry" />
        </mxCell>
        <mxCell id="U0MHQRph9I1R_LKBhdZ5-65" value="" style="endArrow=classic;html=1;rounded=0;" edge="1" parent="1">
          <mxGeometry width="50" height="50" relative="1" as="geometry">
            <mxPoint x="-1520" y="-880" as="sourcePoint" />
            <mxPoint x="-1520" y="-840" as="targetPoint" />
          </mxGeometry>
        </mxCell>
        <mxCell id="U0MHQRph9I1R_LKBhdZ5-66" value="Eingabe von Uhrzeit" style="shape=parallelogram;perimeter=parallelogramPerimeter;whiteSpace=wrap;html=1;fixedSize=1;" vertex="1" parent="1">
          <mxGeometry x="-1580" y="-740" width="120" height="60" as="geometry" />
        </mxCell>
        <mxCell id="U0MHQRph9I1R_LKBhdZ5-67" value="" style="endArrow=classic;html=1;rounded=0;" edge="1" parent="1">
          <mxGeometry width="50" height="50" relative="1" as="geometry">
            <mxPoint x="-1520" y="-780" as="sourcePoint" />
            <mxPoint x="-1520" y="-740" as="targetPoint" />
          </mxGeometry>
        </mxCell>
        <mxCell id="U0MHQRph9I1R_LKBhdZ5-68" value="Ort = Deutschland" style="rhombus;whiteSpace=wrap;html=1;" vertex="1" parent="1">
          <mxGeometry x="-1620" y="-639" width="200" height="80" as="geometry" />
        </mxCell>
        <mxCell id="U0MHQRph9I1R_LKBhdZ5-69" value="" style="edgeLabel;html=1;align=center;verticalAlign=middle;resizable=0;points=[];" vertex="1" connectable="0" parent="U0MHQRph9I1R_LKBhdZ5-68">
          <mxGeometry x="-219.9983" as="geometry" />
        </mxCell>
        <mxCell id="U0MHQRph9I1R_LKBhdZ5-70" value="" style="endArrow=classic;html=1;rounded=0;" edge="1" parent="1">
          <mxGeometry width="50" height="50" relative="1" as="geometry">
            <mxPoint x="-1520" y="-680" as="sourcePoint" />
            <mxPoint x="-1520" y="-640" as="targetPoint" />
          </mxGeometry>
        </mxCell>
        <mxCell id="U0MHQRph9I1R_LKBhdZ5-71" value="Uhrzeit &lt; 12" style="rhombus;whiteSpace=wrap;html=1;" vertex="1" parent="1">
          <mxGeometry x="-1349.8600000000001" y="-639" width="160" height="80" as="geometry" />
        </mxCell>
        <mxCell id="U0MHQRph9I1R_LKBhdZ5-72" value="" style="edgeLabel;html=1;align=center;verticalAlign=middle;resizable=0;points=[];" vertex="1" connectable="0" parent="U0MHQRph9I1R_LKBhdZ5-71">
          <mxGeometry x="0.1417" y="1" as="geometry" />
        </mxCell>
        <mxCell id="U0MHQRph9I1R_LKBhdZ5-73" value="" style="endArrow=classic;html=1;rounded=0;" edge="1" parent="1">
          <mxGeometry width="50" height="50" relative="1" as="geometry">
            <mxPoint x="-1099.8600000000001" y="-599.5899999999999" as="sourcePoint" />
            <mxPoint x="-1059.8600000000001" y="-599.5899999999999" as="targetPoint" />
            <Array as="points">
              <mxPoint x="-1189.8600000000001" y="-599.5899999999999" />
            </Array>
          </mxGeometry>
        </mxCell>
        <mxCell id="U0MHQRph9I1R_LKBhdZ5-74" value="Ausgabe von &quot;Guten Morgen&quot;" style="shape=parallelogram;perimeter=parallelogramPerimeter;whiteSpace=wrap;html=1;fixedSize=1;" vertex="1" parent="1">
          <mxGeometry x="-1329.8600000000001" y="-529" width="120" height="60" as="geometry" />
        </mxCell>
        <mxCell id="U0MHQRph9I1R_LKBhdZ5-75" value="" style="endArrow=classic;html=1;rounded=0;entryX=0.5;entryY=0;entryDx=0;entryDy=0;" edge="1" parent="1">
          <mxGeometry width="50" height="50" relative="1" as="geometry">
            <mxPoint x="-1519.8600000000001" y="-559" as="sourcePoint" />
            <mxPoint x="-1519.8600000000001" y="-429.00000000000045" as="targetPoint" />
            <Array as="points">
              <mxPoint x="-1519.8600000000001" y="-539" />
              <mxPoint x="-1519.8600000000001" y="-459" />
            </Array>
          </mxGeometry>
        </mxCell>
        <mxCell id="U0MHQRph9I1R_LKBhdZ5-76" value="" style="edgeLabel;html=1;align=center;verticalAlign=middle;resizable=0;points=[];" vertex="1" connectable="0" parent="U0MHQRph9I1R_LKBhdZ5-75">
          <mxGeometry x="-0.04" y="-2" as="geometry" />
        </mxCell>
        <mxCell id="U0MHQRph9I1R_LKBhdZ5-77" value="Uhrzeit == 12" style="rhombus;whiteSpace=wrap;html=1;" vertex="1" parent="1">
          <mxGeometry x="-1059.8600000000001" y="-639" width="160" height="80" as="geometry" />
        </mxCell>
        <mxCell id="U0MHQRph9I1R_LKBhdZ5-78" value="" style="edgeLabel;html=1;align=center;verticalAlign=middle;resizable=0;points=[];" vertex="1" connectable="0" parent="U0MHQRph9I1R_LKBhdZ5-77">
          <mxGeometry x="0.1417" y="1" as="geometry" />
        </mxCell>
        <mxCell id="U0MHQRph9I1R_LKBhdZ5-79" value="" style="endArrow=classic;html=1;rounded=0;" edge="1" parent="1">
          <mxGeometry width="50" height="50" relative="1" as="geometry">
            <mxPoint x="-1420" y="-599" as="sourcePoint" />
            <mxPoint x="-1349.8600000000001" y="-599" as="targetPoint" />
            <Array as="points" />
          </mxGeometry>
        </mxCell>
        <mxCell id="U0MHQRph9I1R_LKBhdZ5-80" value="Ausgabe von &quot;Mahlzeit!&quot;" style="shape=parallelogram;perimeter=parallelogramPerimeter;whiteSpace=wrap;html=1;fixedSize=1;" vertex="1" parent="1">
          <mxGeometry x="-1039.8600000000001" y="-489" width="120" height="60" as="geometry" />
        </mxCell>
        <mxCell id="U0MHQRph9I1R_LKBhdZ5-81" value="" style="endArrow=classic;html=1;rounded=0;" edge="1" parent="1">
          <mxGeometry width="50" height="50" relative="1" as="geometry">
            <mxPoint x="-979.86" y="-559" as="sourcePoint" />
            <mxPoint x="-979.86" y="-489" as="targetPoint" />
            <Array as="points" />
          </mxGeometry>
        </mxCell>
        <mxCell id="U0MHQRph9I1R_LKBhdZ5-82" value="" style="edgeLabel;html=1;align=center;verticalAlign=middle;resizable=0;points=[];" vertex="1" connectable="0" parent="U0MHQRph9I1R_LKBhdZ5-81">
          <mxGeometry x="-0.04" y="-2" as="geometry" />
        </mxCell>
        <mxCell id="U0MHQRph9I1R_LKBhdZ5-83" value="Ort = USA" style="rhombus;whiteSpace=wrap;html=1;" vertex="1" parent="1">
          <mxGeometry x="-1620" y="-429" width="200" height="80" as="geometry" />
        </mxCell>
        <mxCell id="U0MHQRph9I1R_LKBhdZ5-84" value="" style="edgeLabel;html=1;align=center;verticalAlign=middle;resizable=0;points=[];" vertex="1" connectable="0" parent="U0MHQRph9I1R_LKBhdZ5-83">
          <mxGeometry x="0.1417" y="1" as="geometry" />
        </mxCell>
        <mxCell id="U0MHQRph9I1R_LKBhdZ5-85" value="" style="endArrow=classic;html=1;rounded=0;" edge="1" parent="1">
          <mxGeometry width="50" height="50" relative="1" as="geometry">
            <mxPoint x="-1270.45" y="-559" as="sourcePoint" />
            <mxPoint x="-1270.45" y="-529" as="targetPoint" />
          </mxGeometry>
        </mxCell>
        <mxCell id="U0MHQRph9I1R_LKBhdZ5-86" value="Uhrzeit &lt; 12" style="rhombus;whiteSpace=wrap;html=1;" vertex="1" parent="1">
          <mxGeometry x="-1349.8600000000001" y="-429" width="160" height="80" as="geometry" />
        </mxCell>
        <mxCell id="U0MHQRph9I1R_LKBhdZ5-87" value="" style="edgeLabel;html=1;align=center;verticalAlign=middle;resizable=0;points=[];" vertex="1" connectable="0" parent="U0MHQRph9I1R_LKBhdZ5-86">
          <mxGeometry x="0.1417" y="1" as="geometry" />
        </mxCell>
        <mxCell id="U0MHQRph9I1R_LKBhdZ5-88" value="" style="endArrow=classic;html=1;rounded=0;" edge="1" parent="1">
          <mxGeometry width="50" height="50" relative="1" as="geometry">
            <mxPoint x="-1360" y="-389.17999999999995" as="sourcePoint" />
            <mxPoint x="-1350" y="-389.17999999999995" as="targetPoint" />
            <Array as="points">
              <mxPoint x="-1420" y="-389.59" />
            </Array>
          </mxGeometry>
        </mxCell>
        <mxCell id="U0MHQRph9I1R_LKBhdZ5-89" value="Ausgabe von &quot;Mornin&quot;" style="shape=parallelogram;perimeter=parallelogramPerimeter;whiteSpace=wrap;html=1;fixedSize=1;" vertex="1" parent="1">
          <mxGeometry x="-1329.8600000000001" y="-219" width="120" height="60" as="geometry" />
        </mxCell>
        <mxCell id="U0MHQRph9I1R_LKBhdZ5-90" value="" style="endArrow=classic;html=1;rounded=0;entryX=0.5;entryY=0;entryDx=0;entryDy=0;exitX=0.5;exitY=1;exitDx=0;exitDy=0;" edge="1" parent="1" target="U0MHQRph9I1R_LKBhdZ5-89" source="U0MHQRph9I1R_LKBhdZ5-86">
          <mxGeometry width="50" height="50" relative="1" as="geometry">
            <mxPoint x="-1389.8600000000001" y="-139" as="sourcePoint" />
            <mxPoint x="-1469.8600000000001" y="-109" as="targetPoint" />
            <Array as="points">
              <mxPoint x="-1269.8600000000001" y="-299" />
            </Array>
          </mxGeometry>
        </mxCell>
        <mxCell id="U0MHQRph9I1R_LKBhdZ5-91" value="" style="edgeLabel;html=1;align=center;verticalAlign=middle;resizable=0;points=[];" vertex="1" connectable="0" parent="U0MHQRph9I1R_LKBhdZ5-90">
          <mxGeometry x="-0.04" y="-2" as="geometry" />
        </mxCell>
        <mxCell id="U0MHQRph9I1R_LKBhdZ5-92" value="Uhrzeit == 12" style="rhombus;whiteSpace=wrap;html=1;" vertex="1" parent="1">
          <mxGeometry x="-1189.8600000000001" y="-354" width="160" height="80" as="geometry" />
        </mxCell>
        <mxCell id="U0MHQRph9I1R_LKBhdZ5-93" value="" style="edgeLabel;html=1;align=center;verticalAlign=middle;resizable=0;points=[];" vertex="1" connectable="0" parent="U0MHQRph9I1R_LKBhdZ5-92">
          <mxGeometry x="0.1417" y="1" as="geometry" />
        </mxCell>
        <mxCell id="U0MHQRph9I1R_LKBhdZ5-94" value="" style="endArrow=classic;html=1;rounded=0;" edge="1" parent="1">
          <mxGeometry width="50" height="50" relative="1" as="geometry">
            <mxPoint x="-1199.8600000000001" y="-389" as="sourcePoint" />
            <mxPoint x="-1109.8600000000001" y="-349" as="targetPoint" />
            <Array as="points">
              <mxPoint x="-1109.8600000000001" y="-389" />
            </Array>
          </mxGeometry>
        </mxCell>
        <mxCell id="U0MHQRph9I1R_LKBhdZ5-95" value="Ausgabe von &quot;Lunch time&quot;" style="shape=parallelogram;perimeter=parallelogramPerimeter;whiteSpace=wrap;html=1;fixedSize=1;" vertex="1" parent="1">
          <mxGeometry x="-1169.8600000000001" y="-239" width="120" height="60" as="geometry" />
        </mxCell>
        <mxCell id="U0MHQRph9I1R_LKBhdZ5-96" value="" style="endArrow=classic;html=1;rounded=0;entryX=0.5;entryY=0;entryDx=0;entryDy=0;exitX=0.5;exitY=1;exitDx=0;exitDy=0;" edge="1" parent="1" target="U0MHQRph9I1R_LKBhdZ5-95" source="U0MHQRph9I1R_LKBhdZ5-92">
          <mxGeometry width="50" height="50" relative="1" as="geometry">
            <mxPoint x="-1149.8600000000001" y="-139" as="sourcePoint" />
            <mxPoint x="-1149.8600000000001" y="-109" as="targetPoint" />
          </mxGeometry>
        </mxCell>
        <mxCell id="U0MHQRph9I1R_LKBhdZ5-97" value="" style="edgeLabel;html=1;align=center;verticalAlign=middle;resizable=0;points=[];" vertex="1" connectable="0" parent="U0MHQRph9I1R_LKBhdZ5-96">
          <mxGeometry x="-0.04" y="-2" as="geometry" />
        </mxCell>
        <mxCell id="U0MHQRph9I1R_LKBhdZ5-98" value="Ort = Spanien" style="rhombus;whiteSpace=wrap;html=1;" vertex="1" parent="1">
          <mxGeometry x="-1620" y="-79" width="200" height="80" as="geometry" />
        </mxCell>
        <mxCell id="U0MHQRph9I1R_LKBhdZ5-99" value="" style="edgeLabel;html=1;align=center;verticalAlign=middle;resizable=0;points=[];" vertex="1" connectable="0" parent="U0MHQRph9I1R_LKBhdZ5-98">
          <mxGeometry x="0.1417" y="1" as="geometry" />
        </mxCell>
        <mxCell id="U0MHQRph9I1R_LKBhdZ5-100" value="" style="endArrow=classic;html=1;rounded=0;exitX=1;exitY=0.5;exitDx=0;exitDy=0;" edge="1" parent="1" source="U0MHQRph9I1R_LKBhdZ5-95">
          <mxGeometry width="50" height="50" relative="1" as="geometry">
            <mxPoint x="-980.4499999999999" y="-239" as="sourcePoint" />
            <mxPoint x="-980.4499999999999" y="-209" as="targetPoint" />
          </mxGeometry>
        </mxCell>
        <mxCell id="U0MHQRph9I1R_LKBhdZ5-101" value="Uhrzeit &lt; 12" style="rhombus;whiteSpace=wrap;html=1;" vertex="1" parent="1">
          <mxGeometry x="-1359.8600000000001" y="-79" width="160" height="80" as="geometry" />
        </mxCell>
        <mxCell id="U0MHQRph9I1R_LKBhdZ5-102" value="" style="edgeLabel;html=1;align=center;verticalAlign=middle;resizable=0;points=[];" vertex="1" connectable="0" parent="U0MHQRph9I1R_LKBhdZ5-101">
          <mxGeometry x="0.1417" y="1" as="geometry" />
        </mxCell>
        <mxCell id="U0MHQRph9I1R_LKBhdZ5-103" value="" style="endArrow=classic;html=1;rounded=0;entryX=0;entryY=0.5;entryDx=0;entryDy=0;" edge="1" parent="1" target="U0MHQRph9I1R_LKBhdZ5-101">
          <mxGeometry width="50" height="50" relative="1" as="geometry">
            <mxPoint x="-1349.8600000000001" y="-39.59000000000003" as="sourcePoint" />
            <mxPoint x="-1339.8600000000001" y="-39.59000000000003" as="targetPoint" />
            <Array as="points">
              <mxPoint x="-1420" y="-39" />
            </Array>
          </mxGeometry>
        </mxCell>
        <mxCell id="U0MHQRph9I1R_LKBhdZ5-104" value="Ausgabe von &quot;Buenos dias&quot;" style="shape=parallelogram;perimeter=parallelogramPerimeter;whiteSpace=wrap;html=1;fixedSize=1;" vertex="1" parent="1">
          <mxGeometry x="-1329.8600000000001" y="91" width="120" height="60" as="geometry" />
        </mxCell>
        <mxCell id="U0MHQRph9I1R_LKBhdZ5-105" value="" style="endArrow=classic;html=1;rounded=0;" edge="1" parent="1">
          <mxGeometry width="50" height="50" relative="1" as="geometry">
            <mxPoint x="-1280.8600000000001" y="11" as="sourcePoint" />
            <mxPoint x="-1280.45" y="91" as="targetPoint" />
            <Array as="points">
              <mxPoint x="-1280.45" y="56" />
            </Array>
          </mxGeometry>
        </mxCell>
        <mxCell id="U0MHQRph9I1R_LKBhdZ5-106" value="" style="edgeLabel;html=1;align=center;verticalAlign=middle;resizable=0;points=[];" vertex="1" connectable="0" parent="U0MHQRph9I1R_LKBhdZ5-105">
          <mxGeometry x="-0.04" y="-2" as="geometry" />
        </mxCell>
        <mxCell id="U0MHQRph9I1R_LKBhdZ5-107" value="Uhrzeit == 12" style="rhombus;whiteSpace=wrap;html=1;" vertex="1" parent="1">
          <mxGeometry x="-1159.8600000000001" y="-59" width="160" height="80" as="geometry" />
        </mxCell>
        <mxCell id="U0MHQRph9I1R_LKBhdZ5-108" value="" style="edgeLabel;html=1;align=center;verticalAlign=middle;resizable=0;points=[];" vertex="1" connectable="0" parent="U0MHQRph9I1R_LKBhdZ5-107">
          <mxGeometry x="0.1417" y="1" as="geometry" />
        </mxCell>
        <mxCell id="U0MHQRph9I1R_LKBhdZ5-110" value="Ausgabe von &quot;Tiempo para la siesta&quot;" style="shape=parallelogram;perimeter=parallelogramPerimeter;whiteSpace=wrap;html=1;fixedSize=1;" vertex="1" parent="1">
          <mxGeometry x="-1139.8600000000001" y="91" width="120" height="60" as="geometry" />
        </mxCell>
        <mxCell id="U0MHQRph9I1R_LKBhdZ5-111" value="" style="endArrow=classic;html=1;rounded=0;entryX=0.5;entryY=0;entryDx=0;entryDy=0;exitX=0.5;exitY=1;exitDx=0;exitDy=0;" edge="1" parent="1" target="U0MHQRph9I1R_LKBhdZ5-110" source="U0MHQRph9I1R_LKBhdZ5-107">
          <mxGeometry width="50" height="50" relative="1" as="geometry">
            <mxPoint x="-1149.8600000000001" y="171" as="sourcePoint" />
            <mxPoint x="-1149.8600000000001" y="201" as="targetPoint" />
          </mxGeometry>
        </mxCell>
        <mxCell id="U0MHQRph9I1R_LKBhdZ5-112" value="" style="edgeLabel;html=1;align=center;verticalAlign=middle;resizable=0;points=[];" vertex="1" connectable="0" parent="U0MHQRph9I1R_LKBhdZ5-111">
          <mxGeometry x="-0.04" y="-2" as="geometry" />
        </mxCell>
        <mxCell id="U0MHQRph9I1R_LKBhdZ5-113" value="Ende" style="ellipse;whiteSpace=wrap;html=1;" vertex="1" parent="1">
          <mxGeometry x="-1580" y="270" width="120" height="60" as="geometry" />
        </mxCell>
        <mxCell id="U0MHQRph9I1R_LKBhdZ5-114" value="" style="endArrow=classic;html=1;rounded=0;" edge="1" parent="1">
          <mxGeometry width="50" height="50" relative="1" as="geometry">
            <mxPoint x="-1520.5900000000001" y="-349" as="sourcePoint" />
            <mxPoint x="-1520.5900000000001" y="-79" as="targetPoint" />
            <Array as="points">
              <mxPoint x="-1520.5900000000001" y="-149" />
              <mxPoint x="-1520.5900000000001" y="-129" />
            </Array>
          </mxGeometry>
        </mxCell>
        <mxCell id="U0MHQRph9I1R_LKBhdZ5-115" value="" style="endArrow=classic;html=1;rounded=0;" edge="1" parent="1">
          <mxGeometry width="50" height="50" relative="1" as="geometry">
            <mxPoint x="-979.86" y="-429" as="sourcePoint" />
            <mxPoint x="-969.86" y="271" as="targetPoint" />
            <Array as="points">
              <mxPoint x="-979.86" y="-399" />
              <mxPoint x="-979.86" y="-359" />
              <mxPoint x="-979.86" y="-339" />
              <mxPoint x="-979.86" y="-299" />
            </Array>
          </mxGeometry>
        </mxCell>
        <mxCell id="U0MHQRph9I1R_LKBhdZ5-116" value="" style="endArrow=classic;html=1;rounded=0;" edge="1" parent="1">
          <mxGeometry width="50" height="50" relative="1" as="geometry">
            <mxPoint x="-1270.45" y="151" as="sourcePoint" />
            <mxPoint x="-1269.8600000000001" y="291" as="targetPoint" />
            <Array as="points">
              <mxPoint x="-1270.45" y="161" />
              <mxPoint x="-1270.45" y="191" />
              <mxPoint x="-1270.45" y="221" />
              <mxPoint x="-1270.45" y="271" />
            </Array>
          </mxGeometry>
        </mxCell>
        <mxCell id="U0MHQRph9I1R_LKBhdZ5-117" value="" style="endArrow=classic;html=1;rounded=0;" edge="1" parent="1">
          <mxGeometry width="50" height="50" relative="1" as="geometry">
            <mxPoint x="-1520.5900000000001" y="51" as="sourcePoint" />
            <mxPoint x="-1520.8600000000001" y="271" as="targetPoint" />
            <Array as="points">
              <mxPoint x="-1520.5900000000001" y="1" />
              <mxPoint x="-1520.5900000000001" y="191" />
              <mxPoint x="-1520.8600000000001" y="221" />
            </Array>
          </mxGeometry>
        </mxCell>
        <mxCell id="U0MHQRph9I1R_LKBhdZ5-118" value="" style="endArrow=classic;html=1;rounded=0;entryX=1;entryY=0.5;entryDx=0;entryDy=0;" edge="1" parent="1" target="U0MHQRph9I1R_LKBhdZ5-113">
          <mxGeometry width="50" height="50" relative="1" as="geometry">
            <mxPoint x="-969.86" y="270" as="sourcePoint" />
            <mxPoint x="-1299.8600000000001" y="321" as="targetPoint" />
            <Array as="points">
              <mxPoint x="-969.86" y="291" />
              <mxPoint x="-1299.8600000000001" y="291" />
              <mxPoint x="-1389.8600000000001" y="291" />
            </Array>
          </mxGeometry>
        </mxCell>
        <mxCell id="U0MHQRph9I1R_LKBhdZ5-119" value="" style="endArrow=classic;html=1;rounded=0;exitX=0.5;exitY=1;exitDx=0;exitDy=0;" edge="1" parent="1" source="U0MHQRph9I1R_LKBhdZ5-110">
          <mxGeometry width="50" height="50" relative="1" as="geometry">
            <mxPoint x="-1080.45" y="181" as="sourcePoint" />
            <mxPoint x="-1080.45" y="291" as="targetPoint" />
            <Array as="points">
              <mxPoint x="-1080.45" y="201" />
              <mxPoint x="-1080.45" y="231" />
            </Array>
          </mxGeometry>
        </mxCell>
        <mxCell id="U0MHQRph9I1R_LKBhdZ5-120" style="edgeStyle=orthogonalEdgeStyle;rounded=0;orthogonalLoop=1;jettySize=auto;html=1;exitX=0.5;exitY=1;exitDx=0;exitDy=0;" edge="1" parent="1" source="U0MHQRph9I1R_LKBhdZ5-89">
          <mxGeometry relative="1" as="geometry">
            <mxPoint x="-1049.8600000000001" y="-110" as="sourcePoint" />
            <mxPoint x="-980" y="-110" as="targetPoint" />
            <Array as="points">
              <mxPoint x="-1270" y="-110" />
            </Array>
          </mxGeometry>
        </mxCell>
        <mxCell id="U0MHQRph9I1R_LKBhdZ5-109" value="" style="endArrow=classic;html=1;rounded=0;entryX=0;entryY=0.5;entryDx=0;entryDy=0;exitX=1;exitY=0.5;exitDx=0;exitDy=0;" edge="1" parent="1" source="U0MHQRph9I1R_LKBhdZ5-101" target="U0MHQRph9I1R_LKBhdZ5-107">
          <mxGeometry width="50" height="50" relative="1" as="geometry">
            <mxPoint x="-1225.8600000000001" y="-39" as="sourcePoint" />
            <mxPoint x="-1105.8600000000001" y="-39" as="targetPoint" />
            <Array as="points" />
          </mxGeometry>
        </mxCell>
        <mxCell id="U0MHQRph9I1R_LKBhdZ5-121" value="" style="endArrow=classic;html=1;rounded=0;exitX=0.5;exitY=1;exitDx=0;exitDy=0;" edge="1" parent="1" source="U0MHQRph9I1R_LKBhdZ5-74">
          <mxGeometry width="50" height="50" relative="1" as="geometry">
            <mxPoint x="-850" y="-350" as="sourcePoint" />
            <mxPoint x="-980" y="-390" as="targetPoint" />
            <Array as="points">
              <mxPoint x="-1110" y="-420" />
            </Array>
          </mxGeometry>
        </mxCell>
      </root>
    </mxGraphModel>
  </diagram>
</mxfile>
